<svg height="512" viewBox="0 0 59 52" width="512" xmlns="http://www.w3.org/2000/svg"><g id="011---Eyelash-Gel" fill="none" transform="translate(0 -1)"><path id="Shape" d="m9.926 33c-6.306-.028-9.926-4.429-9.926-12 0-.5522847.44771525-1 1-1s1 .4477153 1 1c0 4.53 1.377 9.942 7.939 10 .3572656.0023222.6861537.195067.8627754.5056292s.1741439.69176-.0065 1c-.1806439.3082399-.5120098.496693-.8692754.4943708z" fill="#393f4a"/><path id="Shape" d="m14.974 29.932c-7.197-.915-7.974-7.95-7.974-10.932 0-.5522847.44771525-1 1-1s1 .4477153 1 1c0 3.046.809 8.259 6.226 8.948.3565888.0424885.6630151.2729185.8028071.603704.1397919.3307855.0914821.711129-.1265669.996463-.2180491.2853339-.5723524.4318405-.9282402.383833z" fill="#393f4a"/><path id="Shape" d="m22.585 26.979c-5.456-.242-8.585-3.514-8.585-8.979 0-.5522847.4477153-1 1-1s1 .4477153 1 1c0 4.436 2.246 6.785 6.674 6.981.3572656.0158983.678911.2211879.8437754.5385381.1648645.3173503.1479012.6985481-.0445 1-.1924011.301452-.5310098.4773602-.8882754.4614619z" fill="#393f4a"/><path id="Shape" d="m28.874 25.922c-6.891-.88-6.88-6.167-6.874-8.708v-.214c0-.5522847.4477153-1 1-1s1 .4477153 1 1v.218c-.006 2.559-.013 6.064 5.126 6.72.3565888.0424885.6630151.2729185.8028071.603704.1397919.3307855.0914821.711129-.1265669.996463-.2180491.2853339-.5723524.4318405-.9282402.383833z" fill="#393f4a"/><path id="Shape" d="m58.52 37.18c-3.754-2.467-8.914-8-16.59-11.08v-.01c-7.5795353-3.0594212-16.0719051-2.9368658-23.56.34-6.2454699 2.6954171-11.9277401 6.5423988-16.75 11.34-.41977643.410972-.64359718.981949-.61492808 1.5687098.02866909.5867609.30708665 1.1331986.76492808 1.5012902 2.80337174 2.3245693 5.75639414 4.4625041 8.84 6.4 8.8 5.4 20.09 8.21 29.67 2.99 5.933-3.235 7.509-8.211 17.97-11.2.3905387-.1076411.6804997-.4359936.7390029-.8368482.0585031-.4008547-.1255186-.798383-.4690029-1.0131518z" fill="#f5efca"/><path id="Shape" d="m36 8h-21c-.5522847 0-1-.44771525-1-1s.4477153-1 1-1h21c.5522847 0 1 .44771525 1 1s-.4477153 1-1 1z" fill="#3d324c"/><path id="Shape" d="m41.93 26.1v-.01c-6.2909415-2.5624701-13.2665743-2.9080777-19.78-.98 1.1478132.4780262 1.8817942 1.6145529 1.8453354 2.8573945-.0364588 1.2428415-.8358004 2.3343882-2.0096615 2.7443079-1.1738612.4099198-2.4789303.0532467-3.2811346-.8967284-.8022042-.949975-.935267-2.2963462-.3345393-3.384974-1.1.45-2.17.94-3.2 1.47-1.9505584 4.6506767-1.4555058 9.9675144 1.320131 14.1781333 2.7756369 4.210619 7.466871 6.7613371 12.509869 6.8018667 11.661 0 18.761-12.84 12.93-22.78zm-11.93 11.78c-2.209139 0-4-1.790861-4-4s1.790861-4 4-4 4 1.790861 4 4-1.790861 4-4 4z" fill="#26b99a"/><path id="Shape" d="m24 27.88c-.002805 1.2524255-.7833496 2.3713206-1.9577697 2.8064238s-2.4955565.0948461-3.3136873-.8534363-.9610785-2.3050219-.358543-3.4029875c1.2361135-.5056311 2.4978385-.9462335 3.78-1.32 1.1213234.4627522 1.8521023 1.5569455 1.85 2.77z" fill="#fff"/><path id="Shape" d="m58.25 39.03c-2.679572.7400027-5.2438817 1.8471653-7.62 3.29-.474146-3.4256891.0974824-6.9147133 1.64-10.01 2.46 1.92 4.5 3.72 6.25 4.87.3434843.2147688.527506.6122971.4690029 1.0131518-.0585032.4008546-.3484642.7292071-.7390029.8368482z" fill="#fb7b76"/><circle id="Oval" cx="30" cy="33.88" fill="#393f4a" r="4"/><path id="Shape" d="m59 7c0 5.432-14.591 5.99-20 5.99-.8365294.1634157-1.7037005-.0128971-2.41-.49-.3678106-.2947344-.5842914-.7387034-.59-1.21v-8.58c.0891569-1.01984377.9786896-1.78039424 2-1.71 5.606 0 21 .385 21 6z" fill="#955ba5"/><path id="Shape" d="m15 7c0 1.65685425-1.3431458 3-3 3h-8c-1.65685425 0-3-1.34314575-3-3s1.34314575-3 3-3h8c1.6568542 0 3 1.34314575 3 3z" fill="#393f4a"/><g fill="#464f5d"><path id="Shape" d="m4 13c-.55228475 0-1-.4477153-1-1v-2c0-.55228475.44771525-1 1-1s1 .44771525 1 1v2c0 .5522847-.44771525 1-1 1z"/><path id="Shape" d="m4 5c-.55228475 0-1-.44771525-1-1v-2c0-.55228475.44771525-1 1-1s1 .44771525 1 1v2c0 .55228475-.44771525 1-1 1z"/><path id="Shape" d="m8 13c-.55228475 0-1-.4477153-1-1v-2c0-.55228475.44771525-1 1-1s1 .44771525 1 1v2c0 .5522847-.44771525 1-1 1z"/><path id="Shape" d="m8 5c-.55228475 0-1-.44771525-1-1v-2c0-.55228475.44771525-1 1-1s1 .44771525 1 1v2c0 .55228475-.44771525 1-1 1z"/><path id="Shape" d="m12 13c-.5522847 0-1-.4477153-1-1v-2c0-.55228475.4477153-1 1-1s1 .44771525 1 1v2c0 .5522847-.4477153 1-1 1z"/><path id="Shape" d="m12 5c-.5522847 0-1-.44771525-1-1v-2c0-.55228475.4477153-1 1-1s1 .44771525 1 1v2c0 .55228475-.4477153 1-1 1z"/></g><path id="Shape" d="m41 7v5.96c-.77.03-1.45.03-2 .03v-5.99c0-.55228475.4477153-1 1-1s1 .44771525 1 1z" fill="#894b9d"/></g></svg>