<svg height="512" viewBox="0 0 60 56" width="512" xmlns="http://www.w3.org/2000/svg"><g id="040---Hair-Cutting" fill="none"><g id="Icons" transform="translate(1)"><path id="Shape" d="m32 48v6c0 .5522847-.4477153 1-1 1h-30c-.55228475 0-1-.4477153-1-1v-6c0-4.418278 3.581722-8 8-8h16c4.418278 0 8 3.581722 8 8z" fill="#6a1b9a"/><path id="Shape" d="m29 48v6c0 .5522847-.4477153 1-1 1h-27c-.55228475 0-1-.4477153-1-1v-6c0-4.418278 3.581722-8 8-8h13c4.418278 0 8 3.581722 8 8z" fill="#9d27b0"/><path id="Shape" d="m23 40-7 6-7-6c.23546632-.470505.44250462-.9547074.62-1.45.6356432-1.7519484 1.0521388-3.5757957 1.24-5.43 1.0245991.8965513 2.2714909 1.5010002 3.61 1.75 2.3707079.4627753 4.8230098-.1815983 6.66-1.75.1966227 1.8537094.6163261 3.6769009 1.25 5.43.1774954.4952926.3845337.979495.62 1.45z" fill="#dfc49c"/><path id="Shape" d="m16.72 16.41-.08.87c-.2139821 2.3909525 1.5492922 4.5033014 3.94 4.72l5.22.49c-.71 7.11-4.51 13.51-11.33 12.38-3.14-.59-5.25-3-6.61-5.87-1.52-3.2-1.81-6.73-1.86-10.27-.57-13.63 13.54-7.47 17.74-9 1.37 1.57 2.2 4 2.25 7.56z" fill="#dfc49c"/><path id="Shape" d="m16.72 16.41-.08.87c-.2139821 2.3909525 1.5492922 4.5033014 3.94 4.72l2.23.2c-.0799837 1.2491307-.2775239 2.4879424-.59 3.7-1 4.09-3.6 8.2-7.75 8.94-4.16-.79-6.66-4.85-7.7-8.94-.57454848-2.5926081-.83309631-5.2452417-.77-7.9 0-12.7 13.58-6.75 17.75-8.28 1.2002026 1.4896402 1.9279906 3.3038869 2.09 5.21-.2.9-.43 1.72-.59 2.28z" fill="#ffe0b2"/><path id="Shape" d="m6.77 25.93h-.36c-1.11-.22-3.41-1.15-3.41-5 0-1.91.45-2.67 1-2.87s1.61.36 2 .67c-.03033886 2.4220701.22815142 4.8391221.77 7.2z" fill="#dfc49c"/><path id="Shape" d="m26 7.17c-1.43 4.67-6.46 2.06-12.61 2.51-4.94.32-7.64 2.84-7.39 9.05-.38-.31-1.28-.93-2-.67-.57363403-2.3129933-.90871781-4.6786849-1-7.06 0-2.86.91-6.62 6.18-7 4.18-.29 14.57 1.4 16.82-2 .4043076 1.69961989.4043076 3.47038011 0 5.17z" fill="#a0522d"/><path id="Shape" d="m26 2c-.6835526.86347113-1.6570806 1.44971972-2.74 1.65.28 2.91-.39 5.77-3.28 6.27.59 0 1.37.08 2 .08 1.8470055.1655428 3.5413485-1.03320491 4-2.83.4108856-1.69805547.4177358-3.46881641.02-5.17z" fill="#783e22"/><path id="Shape" d="m28.17 17.48-2.17-.2c-.05-3.59-.88-6-2.25-7.56 1.1183499-.43597186 1.9566707-1.38606877 2.25-2.55 1.2073405.69603102 2.2348005 1.66526832 3 2.83.82 1.64-.38 6-.83 7.48z" fill="#a0522d"/><path id="Shape" d="m55.51 17.68c-3.07-3.07-7.76-3.34-10.49-.62-.5385591.5448173-.9754257 1.1814911-1.29 1.88l-4.8-.45.49 5.31 4.13.39c.425022 1.2677015 1.1407658 2.418371 2.09 3.36 3.06 3.06 7.76 3.34 10.48.62s2.45-7.42-.61-10.49zm-1.61 6.44c-.34 1.72-2.39 2.58-4.52 1.31-1.5640083-.8868924-2.4069758-2.6567246-2.11-4.43.46-1.89 3.12-2.73 5.4-.43.974796.905188 1.43581 2.235757 1.23 3.55z" fill="#3f51b5"/><path id="Shape" d="m34.12 23.3h-.24l-13.3-1.3c-1.1538306-.103843-2.218575-.6636509-2.9581918-1.5553209s-1.0929998-2.0415335-.9818082-3.1946791l.08-.87 16.9 1.62z" fill="#3f51b5"/><path id="Shape" d="m43.17 30c-.9437935-.9488372-2.0935402-1.6674289-3.36-2.1-1-10.86 1.26 13.47-2.16-23-.2369149-2.38745883-2.3620917-4.13234081-4.75-3.9l-.9.1c.1 1.06 2.55 27.14 2.54 27-.7018243.3086481-1.3395193.7462155-1.88 1.29-2.73 2.72-2.45 7.42.61 10.48s7.76 3.35 10.49.62 2.48-7.41-.59-10.49zm-3.17 8.31c-.9898765.2367056-2.0334696.0597642-2.89-.49-1.5711332-.8951367-2.4143894-2.6775645-2.11-4.46.5-1.89 3.14-2.73 5.41-.43 1.71 1.73 1.84 4.62-.41 5.38z" fill="#02a9f4"/></g><g id="Layer_10" fill="#000" transform="translate(0 -1)"><path id="Shape" d="m49.87 27.29c3.54 2.13 7-.53 5.88-4.23-.71-2.28-3.32-4.3-5.69-3.86-1.3263906.2357668-2.399731 1.2118843-2.76 2.51-.4378539 2.2197827.5984928 4.4699051 2.57 5.58zm-.64-5.06c.3-1.15 2-1.72 3.73 0 .768415.668737 1.1449846 1.6817093 1 2.69-.19 1-1.46 1.58-3 .64-1.208836-.6464016-1.8961028-1.9692909-1.73-3.33z"/><path id="Shape" d="m57.83 29.87c5-5 .77-14.23-6.63-14.67-2.8639483-.2400748-5.6095099 1.1930694-7.05 3.68l-3.31-.31-1.19-12.71c-.1293415-1.4191599-.8174646-2.72871453-1.9128267-3.64026589-1.0953621-.91155135-2.5081292-1.3503403-3.9271733-1.21973411-.77.08-1.21 0-1.55.44-.1668581.20473262-.2459463.46716195-.22.73l1.47 15.7-3-.29c.69-2.57 1.19-5.53.43-7-.6824218-1.14628758-1.6286515-2.11308746-2.76-2.82.2773625-1.6608801.2229827-3.36025095-.16-5-.0972865-.38250997-.4104602-.67201426-.7994219-.7390021-.3889616-.06698784-.7809384.10107386-1.0005781.4290021-1.69 2.46-10.32 1.55-15.22 1.55-5.16 0-8 2.84-8 8 .07675597 2.2438806.37486862 4.4747011.89 6.66-.66147429.9563407-.97555927 2.1103383-.89 3.27 0 4.38 2.66 5.6 4 5.94.65211246 2.5044553 1.96040931 4.7896599 3.79 6.62-.2151089 1.8947886-.6965217 3.7497429-1.43 5.51-2.44869138-.0980269-4.83146982.8067307-6.59798133 2.5052994-1.76651151 1.6985688-2.76398001 4.0440487-2.76201867 6.4947006v6c0 1.1045695.8954305 2 2 2h30c1.1045695 0 2-.8954305 2-2v-6c.0019613-2.4506519-.9955072-4.7961318-2.7620187-6.4947006-1.7665115-1.6985687-4.1492899-2.6033263-6.5979813-2.5052994-.7380403-1.7704437-1.226056-3.6350004-1.45-5.54 2-1.94 3.87-5.21 4.49-9.85l6.52.61.31 3.31c-4.52 2.57-5 9-.92 13.06 3.41 3.41 8.76 3.76 11.91.62 4.07-4.08 2.14-11.54-3.75-14l-.22-2.3 2.3.21c2.46 5.88 9.93 7.88 14 3.75zm-28.72-18.42c.39.78.12 3.09-.68 6h-.47c.0050365-2.2666276-.5956825-4.4934307-1.74-6.45.4902511-.3608621.8991043-.820822 1.2-1.35.68319.4750069 1.2589596 1.0882526 1.69 1.8zm-18.11-5.45c5.27 0 11.91.77 15.29-1.08.2122209 1.41035083-.0666885 2.85079392-.79 4.08-.6285434.7095853-1.5554787 1.0803594-2.5 1-5.41 0-16.4-3-17 8.09l-.19-.09c-1.47-6.62-1.61-12 5.19-12zm-5.64 14c.24035274.0140499.47065638.1012861.66.25.0123411 1.7479217.15271678 3.4925909.42 5.22-1.98-1.38-1.44-5.12-1.08-5.47zm16 15.86c.2681945 1.6727945.7348192 3.3076595 1.39 4.87l-5.77 5-5.77-5c.6545101-1.5591151 1.1211253-3.19059 1.39-4.86 2.7299043 1.5212799 6.0535681 1.5174944 8.78-.01zm10.64 13.14v6h-4v-4c0-.5522847-.4477153-1-1-1s-1 .4477153-1 1v4h-18v-4c0-.5522847-.44771525-1-1-1s-1 .4477153-1 1v4h-4v-6c0-3.8659932 3.13400675-7 7-7h.63l6.72 5.76c.374224.3200877.925776.3200877 1.3 0l6.72-5.76h.63c3.8659932 0 7 3.1340068 7 7zm-10.52-15.66c-2.5871654 2.2257617-6.4128346 2.2257617-9 0-1.8857599-1.8022695-3.19432254-4.1235761-3.76-6.67-.54370507-2.5190074-.78540789-5.0938138-.72-7.67 0-7.33 4.41-7.73 11.6-7.18 1.5796706.2107176 3.1803294.2107176 4.76 0 1.037963 1.5977681 1.6062155 3.4549833 1.64 5.36l-8.14-.77c-.2654479-.0249745-.5298782.0570888-.7345475.2279595-.2046694.1708707-.3326289.416399-.3554525.6820405l-.08.86c-.2786941 2.9281199 1.86295 5.5302846 4.79 5.82l4.21.4c-.45 3.25-1.76 6.86-4.21 8.94zm.19-11.34c-1.7861267-.1792942-3.111093-1.7383379-3-3.53l15.03 1.44.3 3.29c-11.44-1.08 5.65.51-12.33-1.2zm22.41 18.79c-2.33 2.34-6.4 2.06-9.07-.61-3.32-3.32-2.79-8.48.99-10.18.3898566-.1733387.6267984-.5749349.59-1l-2.47-26c1.7934288-.11641487 3.3556732 1.21127153 3.53 3l2.16 23c.0390938.3926873.305472.7256601.68.85 4.87 1.66 6.82 7.72 3.59 10.94zm-3.08-20.19 3.61.34c.4250651.0367984.8266613-.2001434 1-.59.9511078-2.1022801 3.1328971-3.367959 5.43-3.15 5.66.33 9.15 7.44 5.34 11.26-3.22 3.21-9.27 1.3-10.93-3.59-.1243399-.374528-.4573127-.6409062-.85-.68l-3.3-.31z"/><path id="Shape" d="m38 22.38c.2489255-.2487776.3234538-.6230206.1888247-.9481809-.1346292-.3251602-.4518955-.5371848-.8038247-.5371848s-.6691955.2120246-.8038247.5371848c-.1346291.3251603-.0601008.6994033.1888247.9481809.3397143.3395123.8902857.3395123 1.23 0z"/><path id="Shape" d="m35 34.1c-.81 3 2 6.33 5.16 6.33 3.52 0 4.8-4.29 1.92-7.21s-6.34-1.83-7.08.88zm6.62 3.22c-.19 1-1.47 1.58-3 .64s-2.29-3.2-1.21-4.05c1.59-1.29 4.67 1.09 4.23 3.41z"/></g></g></svg>