<svg height="511pt" viewBox="0 -7 511.984 511" width="511pt" xmlns="http://www.w3.org/2000/svg"><path d="m467.992188 264.492188c6.640624 0 12-5.359376 12-12 0-6.558594-5.359376-12-12-12-6.640626 0-12 5.441406-12 12 0 6.648437 5.359374 12 12 12zm0-48c19.917968 0 36 16.160156 36 36 0 19.917968-16.082032 36-36 36-4.238282 0-8.238282-.71875-12-2.082032-14-4.964844-24-18.246094-24-33.917968 0-19.839844 16.160156-36 36-36zm0 0" fill="#ed5565"/><path d="m395.992188 264.492188c6.640624 0 12-5.359376 12-12 0-6.558594-5.359376-12-12-12-6.640626 0-12 5.441406-12 12 0 6.648437 5.359374 12 12 12zm0-48c19.917968 0 36 16.160156 36 36 0 15.671874-10 29.03125-24 33.917968-3.761719 1.363282-7.761719 2.082032-12 2.082032-19.839844 0-36-16.082032-36-36 0-19.839844 16.160156-36 36-36zm0 0" fill="#ed5565"/><path d="m431.992188 252.492188v116h24v80.871093c0 17.6875-9.679688 31.128907-24 39.441407-14.238282-8.3125-24-21.753907-24-39.441407v-162.953125c14-4.886718 24-18.246094 24-33.917968zm0 0" fill="#e6e9ed"/><path d="m455.992188 286.421875v82.078125h-24v-116c0 15.664062 10 28.953125 24 33.921875zm0 0" fill="#ccd1d9"/><path d="m272.152344 360.570312h23.839844c26.558593 0 48 21.441407 48 48v79.921876h-47.839844v-64h-.082032c0-8.800782-7.191406-15.921876-16-15.921876h-7.917968zm0 0" fill="#e6e9ed"/><path d="m360.070312 320.492188c0 8.871093-7.191406 16-16 16-8.871093 0-16-7.128907-16-16h-.078124v-8h32.078124zm0 0" fill="#e29f33"/><path d="m183.992188 8.492188c79.601562 0 144 64.472656 144 144v48l-24-8.328126-184-63.671874v-104.96875c19.28125-9.589844 40.960937-15.03125 64-15.03125zm0 0" fill="#ffce54"/><path d="m183.992188 8.492188c-4.167969 0-8.289063.230468-12.367188.574218 74.128906 5.953125 132.34375 67.832032 132.34375 143.425782v39.671874h.023438l24 8.328126v-48c0-79.527344-64.398438-144-144-144zm0 0" fill="#f6bb42"/><path d="m344.070312 336.492188h-112.078124v-18c42.398437-18.488282 72-60.71875 72-110v-16.328126l24 8.328126v120h.078124c0 8.878906 7.121094 16 16 16zm0 0" fill="#edab37"/><path d="m280.070312 408.570312c8.808594 0 16 7.128907 16 15.921876h.082032v64h-64v-32h-96v32h-64.082032v-64c0-8.800782 7.128907-15.921876 15.921876-15.921876zm0 0" fill="#da4453"/><path d="m272.152344 408.011719v.558593h-24v-48.078124l24 .078124zm0 0" fill="#d3374e"/><path d="m295.992188 360.570312h-23.839844c26.480468.113282 47.824218 21.503907 47.824218 48v79.921876h24.015626v-79.921876c0-26.558593-21.441407-48-48-48zm0 0" fill="#ccd1d9"/><path d="m248.152344 408.011719v.558593h-128v-48h15.839844v-.078124l24 15.929687 24-8 24 8 24-16v.070313h16.160156zm0 0" fill="#e6e9ed"/><path d="m136.152344 456.492188h96v32h-96zm0 0" fill="#ed5565"/><path d="m303.992188 192.164062v16.328126c0 49.28125-29.601563 91.511718-72 110-14.71875 6.390624-30.960938 10-48 10-17.039063 0-33.28125-3.609376-48-10-42.398438-18.488282-72-60.800782-72-110v-46.25l56-33.75zm0 0" fill="#eac6bb"/><path d="m279.96875 183.851562v24.640626c0 49.28125-29.601562 91.511718-72 110-11.214844 4.871093-23.320312 8.097656-35.992188 9.359374 3.960938.410157 7.960938.640626 12.015626.640626 17.039062 0 33.28125-3.609376 48-10 42.398437-18.488282 72-60.71875 72-110v-16.328126zm0 0" fill="#d3b1a9"/><path d="m231.992188 336.492188v23.917968l-24 16-24-8-24 8-24-15.917968v-42c14.71875 6.390624 30.960937 10 48 10 17.039062 0 33.28125-3.609376 48-10zm0 0" fill="#f5f7fa"/><path d="m120.152344 408.011719v.558593h-24v-48.078124l24 .078124zm0 0" fill="#d3374e"/><path d="m39.992188 176.730469v-24.238281c0-56.480469 32.558593-105.433594 80-128.96875v104.96875l-56 33.75zm0 0" fill="#f6bb42"/><path d="m96.152344 360.492188v48.078124h-8.160156c-8.800782 0-15.921876 7.128907-15.921876 15.921876v64h-48l-.078124-79.921876c0-26.558593 21.519531-48.078124 48.078124-48.078124zm0 0" fill="#e6e9ed"/><path d="m39.992188 320.492188c0 8.871093-7.121094 16-16 16-8.800782 0-16-7.128907-16-16v-8h32zm0 0" fill="#e29f33"/><path d="m39.992188 176.730469 24-14.488281v46.25c0 49.199218 29.601562 91.511718 72 110v18h-112c8.878906 0 16-7.128907 16-16zm0 0" fill="#edab37"/><path d="m24.007812 416.515625c-4.421874 0-8-3.574219-8-8 0-30.886719 25.128907-56.015625 56.015626-56.015625 4.425781 0 8 3.574219 8 8s-3.574219 8-8 8c-22.0625 0-40.015626 17.953125-40.015626 40.015625 0 4.425781-3.574218 8-8 8zm0 0"/><path d="m344.007812 416.507812c-4.421874 0-8-3.574218-8-8 0-22.054687-17.945312-40-40-40-4.421874 0-8-3.574218-8-8 0-4.421874 3.578126-8 8-8 30.871094 0 56 25.128907 56 56 0 4.425782-3.574218 8-8 8zm0 0"/><path d="m136.007812 368.507812-63.984374-.007812c-4.421876 0-8-3.585938-8-8 0-4.425781 3.585937-8 8-8l63.984374.007812c4.425782 0 8 3.585938 8 8 0 4.425782-3.582031 8-8 8zm0 0"/><path d="m296.007812 368.507812-64-.007812c-4.421874 0-8-3.585938-8-8 0-4.425781 3.585938-8 8-8l64 .007812c4.425782 0 8 3.585938 8 8 0 4.425782-3.582031 8-8 8zm0 0"/><path d="m24.015625 496.492188c-4.414063 0-8-3.578126-8-8l-.007813-79.976563c0-4.414063 3.578126-8 8-8 4.417969 0 8 3.578125 8 8l.007813 79.976563c0 4.414062-3.574219 8-8 8zm0 0"/><path d="m344.007812 496.492188c-4.421874 0-8-3.578126-8-8v-79.984376c0-4.421874 3.578126-8 8-8 4.425782 0 8 3.578126 8 8v79.984376c0 4.421874-3.574218 8-8 8zm0 0"/><path d="m136.007812 368.507812c-4.421874 0-8-3.574218-8-8v-42c0-4.421874 3.578126-8 8-8 4.425782 0 8 3.578126 8 8v42c0 4.425782-3.574218 8-8 8zm0 0"/><path d="m232.007812 368.5c-4.421874 0-8-3.574219-8-8v-41.992188c0-4.421874 3.578126-8 8-8 4.425782 0 8 3.578126 8 8v41.992188c0 4.425781-3.574218 8-8 8zm0 0"/><path d="m184.007812 336.5c-70.574218 0-128-57.425781-128-128 0-4.425781 3.578126-8 8-8 4.425782 0 8 3.574219 8 8 0 61.761719 50.238282 112 112 112 61.761719 0 112-50.238281 112-112 0-4.425781 3.578126-8 8-8 4.425782 0 8 3.574219 8 8 0 70.585938-57.421874 128-128 128zm0 0"/><path d="m64.007812 216.5c-4.421874 0-8-3.574219-8-8v-46.238281c0-4.425781 3.578126-8 8-8 4.425782 0 8 3.574219 8 8v46.238281c0 4.425781-3.574218 8-8 8zm0 0"/><path d="m304.007812 216.5c-4.421874 0-8-3.574219-8-8v-16.320312c0-4.421876 3.578126-8 8-8 4.425782 0 8 3.578124 8 8v16.320312c0 4.425781-3.574218 8-8 8zm0 0"/><path d="m328.015625 208.492188c-.863281 0-1.75-.144532-2.617187-.441407l-208.007813-72c-4.167969-1.445312-6.390625-6.007812-4.941406-10.175781 1.445312-4.167969 5.992187-6.382812 10.175781-4.941406l208.007812 72c4.167969 1.445312 6.390626 6.007812 4.941407 10.175781-1.140625 3.3125-4.246094 5.382813-7.558594 5.382813zm0 0"/><path d="m344.015625 344.492188c-13.230469 0-24-10.769532-24-24 0-4.425782 3.578125-8 8-8 4.425781 0 8 3.574218 8 8 0 4.414062 3.585937 8 8 8 4.425781 0 8 3.574218 8 8 0 4.421874-3.574219 8-8 8zm0 0"/><path d="m344.015625 344.492188c-4.421875 0-8-3.578126-8-8 0-4.425782 3.578125-8 8-8 4.417969 0 8-3.585938 8-8 0-4.425782 3.578125-8 8-8 4.425781 0 8 3.574218 8 8 0 13.238281-10.769531 24-24 24zm0 0"/><path d="m344.015625 344.492188h-112.007813c-4.421874 0-8-3.578126-8-8 0-4.425782 3.578126-8 8-8h112.007813c4.425781 0 8 3.574218 8 8 0 4.421874-3.574219 8-8 8zm0 0"/><path d="m328.007812 328.492188c-4.421874 0-8-3.578126-8-8v-167.992188c0-4.425781 3.578126-8 8-8 4.425782 0 8 3.574219 8 8v167.992188c0 4.421874-3.574218 8-8 8zm0 0"/><path d="m360.015625 320.492188h-32.007813c-4.421874 0-8-3.578126-8-8 0-4.425782 3.578126-8 8-8h32.007813c4.425781 0 8 3.574218 8 8 0 4.421874-3.574219 8-8 8zm0 0"/><path d="m360.015625 328.492188c-4.421875 0-8-3.578126-8-8v-8c0-4.425782 3.578125-8 8-8 4.425781 0 8 3.574218 8 8v8c0 4.421874-3.574219 8-8 8zm0 0"/><path d="m24 344.492188c-4.425781 0-8-3.578126-8-8 0-4.425782 3.574219-8 8-8 4.414062 0 8-3.585938 8-8 0-4.425782 3.574219-8 8-8s8 3.574218 8 8c0 13.238281-10.769531 24-24 24zm0 0"/><path d="m24 344.492188c-13.230469 0-24-10.769532-24-24 0-4.425782 3.574219-8 8-8s8 3.574218 8 8c0 4.414062 3.585938 8 8 8 4.425781 0 8 3.574218 8 8 0 4.421874-3.574219 8-8 8zm0 0"/><path d="m136.007812 344.492188h-112.007812c-4.425781 0-8-3.578126-8-8 0-4.425782 3.574219-8 8-8h112.007812c4.425782 0 8 3.574218 8 8 0 4.421874-3.574218 8-8 8zm0 0"/><path d="m40.007812 328.492188c-4.421874 0-8-3.578126-8-8v-167.992188c0-4.425781 3.578126-8 8-8 4.425782 0 8 3.574219 8 8v167.992188c0 4.421874-3.574218 8-8 8zm0 0"/><path d="m40.007812 320.492188h-32.007812c-4.425781 0-8-3.578126-8-8 0-4.425782 3.574219-8 8-8h32.007812c4.425782 0 8 3.574218 8 8 0 4.421874-3.574218 8-8 8zm0 0"/><path d="m8 328.492188c-4.425781 0-8-3.578126-8-8v-8c0-4.425782 3.574219-8 8-8s8 3.574218 8 8v8c0 4.421874-3.574219 8-8 8zm0 0"/><path d="m120.007812 136.492188c-4.421874 0-8-3.578126-8-8v-105.015626c0-4.425781 3.578126-8 8-8 4.425782 0 8 3.574219 8 8v105.015626c0 4.421874-3.574218 8-8 8zm0 0"/><path d="m40.015625 184.730469c-2.710937 0-5.359375-1.375-6.855469-3.863281-2.28125-3.792969-1.0625-8.703126 2.71875-10.984376l80-48.230468c3.792969-2.289063 8.707032-1.074219 10.984375 2.71875 2.28125 3.792968 1.066407 8.703125-2.71875 10.984375l-80 48.234375c-1.304687.773437-2.71875 1.140625-4.128906 1.140625zm0 0"/><path d="m328.007812 160.492188c-4.421874 0-8-3.578126-8-8 0-74.992188-61.007812-136-136-136-74.992187 0-136.007812 61.007812-136.007812 136 0 4.421874-3.574219 8-8 8s-8-3.578126-8-8c0-83.816407 68.183594-152 152.007812-152 83.816407 0 152 68.183593 152 152 0 4.421874-3.574218 8-8 8zm0 0"/><path d="m72.023438 432.492188c-4.421876 0-8-3.578126-8-8 0-13.222657 10.761718-23.984376 23.984374-23.984376 4.425782 0 8 3.578126 8 8 0 4.425782-3.574218 8-8 8-4.40625 0-7.984374 3.578126-7.984374 7.984376 0 4.421874-3.574219 8-8 8zm0 0"/><path d="m296.015625 432.492188c-4.421875 0-8-3.578126-8-8 0-4.40625-3.574219-7.984376-7.984375-7.984376-4.421875 0-8-3.574218-8-8 0-4.421874 3.578125-8 8-8 13.226562 0 23.984375 10.761719 23.984375 23.984376 0 4.421874-3.574219 8-8 8zm0 0"/><path d="m467.984375 296.492188c-24.257813 0-44-19.746094-44-44 0-24.257813 19.742187-44 44-44 24.253906 0 44 19.742187 44 44 0 24.253906-19.746094 44-44 44zm0-72c-15.441406 0-28 12.558593-28 28 0 15.441406 12.558594 28 28 28s28-12.558594 28-28c0-15.441407-12.558594-28-28-28zm0 0"/><path d="m467.984375 272.492188c-11.03125 0-20-8.96875-20-20s8.96875-20 20-20 20 8.96875 20 20-8.96875 20-20 20zm0-24c-2.199219 0-4 1.800781-4 4 0 2.199218 1.800781 4 4 4s4-1.800782 4-4c0-2.199219-1.800781-4-4-4zm0 0"/><path d="m395.984375 296.492188c-24.257813 0-44-19.746094-44-44 0-24.257813 19.742187-44 44-44 24.253906 0 44 19.742187 44 44 0 24.253906-19.746094 44-44 44zm0-72c-15.441406 0-28 12.558593-28 28 0 15.441406 12.558594 28 28 28s28-12.558594 28-28c0-15.441407-12.558594-28-28-28zm0 0"/><path d="m395.984375 272.492188c-11.03125 0-20-8.96875-20-20s8.96875-20 20-20 20 8.96875 20 20-8.96875 20-20 20zm0-24c-2.199219 0-4 1.800781-4 4 0 2.199218 1.800781 4 4 4s4-1.800782 4-4c0-2.199219-1.800781-4-4-4zm0 0"/><path d="m431.984375 376.5c-4.425781 0-8-3.585938-8-8l.007813-116.007812c0-4.425782 3.574218-8 8-8 4.421874 0 8 3.582031 8 8l-.007813 116.007812c0 4.425781-3.585937 8-8 8zm0 0"/><path d="m455.992188 456.492188c-4.425782 0-8-3.578126-8-8v-162.25c0-4.421876 3.574218-8 8-8 4.421874 0 8 3.578124 8 8v162.25c0 4.421874-3.578126 8-8 8zm0 0"/><path d="m407.992188 456.492188c-4.425782 0-8-3.578126-8-8v-162.25c0-4.421876 3.574218-8 8-8 4.421874 0 8 3.578124 8 8v162.25c0 4.421874-3.578126 8-8 8zm0 0"/><path d="m431.984375 496.8125c-1.390625 0-2.785156-.359375-4.03125-1.089844-18.042969-10.519531-27.96875-27-27.960937-46.398437 0-4.425781 3.582031-8 8-8 4.421874 0 8 3.582031 8 8-.007813 14.777343 7.96875 24.207031 15.992187 29.96875 8.023437-5.753907 16-15.183594 16-29.96875 0-4.425781 3.574219-8 8-8 4.421875 0 8 3.574219 8 8 0 19.40625-9.9375 35.878906-27.96875 46.398437-1.246094.730469-2.640625 1.089844-4.03125 1.089844zm0 0"/><path d="m455.992188 376.5h-23.984376c-4.421874 0-8-3.574219-8-8s3.578126-8 8-8h23.984376c4.421874 0 8 3.574219 8 8s-3.578126 8-8 8zm0 0"/><path d="m432.230469 400.492188c-4.421875 0-8.039063-3.578126-8.039063-8 0-4.425782 3.535156-8 7.953125-8h.085938c4.417969 0 8 3.574218 8 8 0 4.421874-3.582031 8-8 8zm0 0"/><path d="m280.03125 416.507812h-192.023438c-4.421874 0-8-3.574218-8-8 0-4.421874 3.578126-8 8-8h192.023438c4.425781 0 8 3.578126 8 8 0 4.425782-3.574219 8-8 8zm0 0"/><path d="m272.121094 416.011719c-4.425782 0-8-3.574219-8-8v-47.503907c0-4.421874 3.574218-8 8-8 4.421875 0 8 3.578126 8 8v47.503907c0 4.425781-3.585938 8-8 8zm0 0"/><path d="m248.121094 416.011719c-4.425782 0-8-3.574219-8-8v-47.503907c0-4.421874 3.574218-8 8-8 4.421875 0 8 3.578126 8 8v47.503907c0 4.425781-3.585938 8-8 8zm0 0"/><path d="m120.121094 416.011719c-4.425782 0-8-3.574219-8-8v-47.503907c0-4.421874 3.574218-8 8-8 4.421875 0 8 3.578126 8 8v47.503907c0 4.425781-3.585938 8-8 8zm0 0"/><path d="m96.121094 416.011719c-4.425782 0-8-3.574219-8-8v-47.503907c0-4.421874 3.574218-8 8-8 4.421875 0 8 3.578126 8 8v47.503907c0 4.425781-3.585938 8-8 8zm0 0"/><path d="m72.023438 496.492188c-4.421876 0-8-3.578126-8-8v-64c0-4.425782 3.578124-8 8-8 4.425781 0 8 3.574218 8 8v64c0 4.421874-3.574219 8-8 8zm0 0"/><path d="m296.121094 496.492188c-4.425782 0-8-3.578126-8-8v-64c0-4.425782 3.574218-8 8-8 4.421875 0 8 3.574218 8 8v64c0 4.421874-3.585938 8-8 8zm0 0"/><path d="m159.976562 384.410156c-1.519531 0-3.066406-.4375-4.433593-1.34375l-24-15.980468c-3.671875-2.449219-4.671875-7.417969-2.214844-11.097657 2.441406-3.679687 7.398437-4.671875 11.097656-2.214843l24 15.984374c3.671875 2.445313 4.671875 7.414063 2.214844 11.09375-1.535156 2.304688-4.082031 3.558594-6.664063 3.558594zm0 0"/><path d="m159.984375 384.410156c-3.351563 0-6.480469-2.117187-7.59375-5.476562-1.390625-4.1875.875-8.722656 5.074219-10.121094l24.007812-7.992188c4.183594-1.359374 8.71875.871094 10.121094 5.070313 1.390625 4.183594-.875 8.722656-5.074219 10.121094l-24.007812 7.992187c-.839844.273438-1.6875.40625-2.527344.40625zm0 0"/><path d="m208 384.410156c-.832031 0-1.6875-.132812-2.519531-.40625l-24.007813-7.992187c-4.191406-1.398438-6.464844-5.925781-5.074218-10.121094 1.402343-4.191406 5.929687-6.429687 10.121093-5.070313l24.007813 7.992188c4.191406 1.398438 6.464844 5.925781 5.074218 10.121094-1.121093 3.359375-4.25 5.476562-7.601562 5.476562zm0 0"/><path d="m208.007812 384.410156c-2.582031 0-5.128906-1.246094-6.664062-3.558594-2.457031-3.671874-1.464844-8.640624 2.214844-11.09375l23.992187-16c3.65625-2.449218 8.648438-1.464843 11.097657 2.214844 2.457031 3.671875 1.464843 8.640625-2.214844 11.09375l-23.992188 16c-1.363281.90625-2.914062 1.34375-4.433594 1.34375zm0 0"/><path d="m136.128906 496.492188c-4.425781 0-8-3.578126-8-8v-31.992188c0-4.425781 3.574219-8 8-8 4.421875 0 8 3.574219 8 8v31.992188c0 4.421874-3.585937 8-8 8zm0 0"/><path d="m232.113281 496.492188c-4.425781 0-8-3.578126-8-8v-31.992188c0-4.425781 3.574219-8 8-8 4.421875 0 8 3.574219 8 8v31.992188c0 4.421874-3.585937 8-8 8zm0 0"/><path d="m232.113281 464.5h-95.984375c-4.425781 0-8-3.574219-8-8s3.574219-8 8-8h95.984375c4.421875 0 8 3.574219 8 8s-3.585937 8-8 8zm0 0"/></svg>