<?xml version="1.0" encoding="iso-8859-1"?>
<!-- Generator: Adobe Illustrator 21.0.0, SVG Export Plug-In . SVG Version: 6.00 Build 0)  -->
<svg xmlns="http://www.w3.org/2000/svg" xmlns:xlink="http://www.w3.org/1999/xlink" version="1.1" id="Capa_1" x="0px" y="0px" viewBox="0 0 510.576 510.576" style="enable-background:new 0 0 510.576 510.576;" xml:space="preserve" width="512" height="512">
<g>
	<path style="fill:#525256;" d="M123.204,279.414c-1.919,0-3.839-0.732-5.304-2.196c-2.929-2.93-2.929-7.678,0-10.607   l102.545-102.546c2.93-2.928,7.678-2.928,10.607,0c2.929,2.93,2.929,7.678,0,10.607L128.508,277.218   C127.043,278.682,125.123,279.414,123.204,279.414z"/>
	<path style="fill:#78777E;" d="M379.417,17.436C368.174,6.192,353.227,0,337.326,0c-15.9,0-30.848,6.192-42.091,17.435   L184.872,127.798c-1.406,1.407-2.196,3.314-2.196,5.304c0,1.989,0.79,3.896,2.196,5.304l73.575,73.574   c1.465,1.464,3.385,2.196,5.304,2.196c1.919,0,3.839-0.732,5.304-2.196l110.362-110.362c11.242-11.243,17.435-26.191,17.435-42.091   C396.852,43.626,390.659,28.678,379.417,17.436z"/>
	<path style="fill:#67676B;" d="M379.417,17.436c-4.083-4.083-8.66-7.49-13.588-10.186c7.272,10.062,11.209,22.109,11.209,34.768   c0,15.899-6.192,30.848-17.435,42.091L249.241,194.47c-1.465,1.464-3.385,2.196-5.304,2.196c-0.287,0-0.573-0.022-0.858-0.055   l15.368,15.368c1.465,1.464,3.385,2.196,5.304,2.196c1.919,0,3.839-0.732,5.304-2.196l110.362-110.362   c11.242-11.243,17.435-26.191,17.435-42.091C396.852,43.626,390.659,28.678,379.417,17.436z"/>
	<path style="fill:#FFC89F;" d="M400.698,284.738c-0.846-2.441-2.888-4.276-5.406-4.855c-2.519-0.579-5.157,0.179-6.984,2.006   L367.5,302.696c-11.022,11.023-28.957,11.023-39.979,0c-11.022-11.021-11.022-28.956,0-39.977c1.464-1.465,2.196-3.385,2.196-5.304   c0-1.919-0.732-3.839-2.196-5.304c-2.93-2.928-7.678-2.928-10.607,0L71.253,497.772c-2.145,2.146-2.786,5.371-1.625,8.174   c1.16,2.803,3.896,4.63,6.929,4.63h151.756c1.989,0,3.896-0.79,5.304-2.196l150.215-150.215   C402.915,339.081,409.535,310.259,400.698,284.738z"/>
	<g>
		<path style="fill:#F7B081;" d="M400.698,284.738c-0.846-2.441-2.888-4.276-5.406-4.855c-2.519-0.579-5.157,0.179-6.984,2.006    L367.5,302.696c-3.463,3.464-7.609,5.837-12.009,7.124c-0.509,17.884-7.715,35.366-20.693,48.344L184.584,508.38    c-1.407,1.406-3.314,2.196-5.304,2.196h49.032c1.989,0,3.896-0.79,5.304-2.196l150.215-150.215    C402.915,339.081,409.535,310.259,400.698,284.738z"/>
	</g>
	<path style="fill:#FFC89F;" d="M448.921,389.506c-0.855-2.431-2.899-4.253-5.412-4.824c-2.512-0.569-5.144,0.188-6.966,2.01   l-20.809,20.808c-11.022,11.023-29.101,10.879-40.298-0.32c-11.199-11.198-11.343-29.276-0.32-40.298   c1.464-1.465,2.196-3.385,2.196-5.304c0-1.919-0.732-3.839-2.196-5.304c-2.93-2.928-7.678-2.928-10.607,0L223.009,497.772   c-2.145,2.146-2.786,5.371-1.625,8.174c1.16,2.803,3.896,4.63,6.929,4.63H381.99c1.989,0,3.896-0.79,5.304-2.196l45.09-45.092   C451.48,444.193,457.971,415.232,448.921,389.506z"/>
	<g>
		<path style="fill:#F7B081;" d="M448.921,389.506c-0.855-2.431-2.899-4.253-5.412-4.824c-2.512-0.569-5.144,0.188-6.966,2.01    l-20.809,20.808c-0.286,0.286-0.58,0.56-0.875,0.831c1.361,20.184-5.862,40.427-20.393,54.958l-45.09,45.092    c-1.407,1.406-3.314,2.196-5.304,2.196h37.919c1.989,0,3.896-0.79,5.304-2.196l45.09-45.092    C451.48,444.193,457.971,415.232,448.921,389.506z"/>
	</g>
	<path style="fill:#FF3D43;" d="M128.339,266.669c-2.261-2.213-5.664-2.772-8.513-1.394l-79.584,38.474   c-6.687,3.233-11.418,9.534-12.657,16.857c-1.238,7.323,1.158,14.831,6.409,20.081l21.825,21.826   c4.347,4.346,10.212,6.729,16.252,6.729c1.352,0,2.712-0.119,4.066-0.363c7.402-1.331,13.692-6.21,16.824-13.048l36.948-80.681   C131.227,272.274,130.598,268.882,128.339,266.669z"/>
	<path style="fill:#D72E2E;" d="M129.91,275.15c1.316-2.876,0.688-6.268-1.571-8.481c-2.261-2.213-5.664-2.772-8.513-1.394   l-26.947,13.027l-37.748,83.522l0.688,0.688c4.347,4.346,10.212,6.729,16.252,6.729c1.352,0,2.712-0.119,4.066-0.363   c7.402-1.331,13.692-6.21,16.824-13.048L129.91,275.15z"/>
	<path style="fill:#FF3D43;" d="M432.881,247.923l-50.585-50.585c-2.929-2.927-7.677-2.929-10.608,0l-54.774,54.773   c-16.87,16.871-16.87,44.321,0,61.192c8.436,8.435,19.517,12.652,30.597,12.652c11.08,0,22.161-4.218,30.597-12.652l54.773-54.773   C435.81,255.601,435.81,250.853,432.881,247.923z"/>
	<path style="fill:#D72E2E;" d="M432.881,247.923l-13.5-13.5l-88.307,88.307c5.253,2.149,10.844,3.227,16.436,3.227   c11.08,0,22.161-4.218,30.597-12.652l54.773-54.773C435.81,255.601,435.81,250.853,432.881,247.923z"/>
	<path style="fill:#FF3D43;" d="M481.115,352.726L429.889,301.5c-2.93-2.928-7.678-2.928-10.607,0l-54.773,54.773   c-16.87,16.871-16.87,44.321,0,61.192l0.641,0.641c8.437,8.435,19.515,12.652,30.597,12.652c11.078,0,22.161-4.219,30.596-12.652   l54.774-54.773c1.406-1.407,2.196-3.314,2.196-5.304C483.312,356.04,482.522,354.133,481.115,352.726z"/>
	<path style="fill:#D72E2E;" d="M483.312,358.029c0-1.989-0.79-3.896-2.196-5.304l-14.044-14.043l-88.183,88.668   c5.374,2.266,11.113,3.408,16.857,3.408c11.078,0,22.161-4.219,30.596-12.652l54.774-54.773   C482.522,361.926,483.312,360.019,483.312,358.029z"/>
</g>















</svg>
