<svg height="304pt" viewBox="0 -44 304.02369 304" width="304pt" xmlns="http://www.w3.org/2000/svg"><g fill="#6f7478"><path d="m139.707031 216.039062c-4.152343.015626-7.628906-3.152343-8-7.289062l-4.28125-47.808594c-.277343-2.859375 1-5.648437 3.347657-7.308594 2.34375-1.65625 5.398437-1.929687 8.003906-.714843 2.601562 1.21875 4.351562 3.738281 4.585937 6.601562l4.28125 47.808594c.410157 4.394531-2.820312 8.296875-7.21875 8.710937-.246093 0-.488281 0-.71875 0zm0 0"/><path d="m178.84375 204.503906c-1.875-.003906-3.691406-.664062-5.128906-1.867187-12.78125-10.621094-20.78125-25.914063-22.214844-42.46875l-.128906-1.355469c-.402344-4.398438 2.839844-8.292969 7.242187-8.695312 4.378907-.332032 8.230469 2.878906 8.695313 7.25l.125 1.359374c1.074218 12.335938 7.042968 23.730469 16.578125 31.632813 2.585937 2.15625 3.546875 5.707031 2.394531 8.875-1.148438 3.164063-4.160156 5.273437-7.53125 5.269531zm0 0"/><path d="m195.097656 152.039062c1.914063 10.882813 7.597656 20.746094 16.058594 27.855469 3.390625 2.835938 3.839844 7.882813 1.003906 11.277344-2.835937 3.390625-7.886718 3.839844-11.277344 1.003906-12.152343-10.105469-20.003906-24.453125-21.960937-40.136719zm0 0"/><path d="m224.257812 174.070312c-2.523437-.011718-4.898437-1.214843-6.398437-3.25-6.824219-9.226562-10.976563-20.15625-12-31.589843l-.121094-1.390625c-.324219-2.890625.945313-5.730469 3.316407-7.414063 2.371093-1.683593 5.46875-1.949219 8.089843-.695312 2.621094 1.257812 4.355469 3.835937 4.53125 6.738281l.121094 1.371094c.757813 8.496094 3.839844 16.617187 8.910156 23.476562 1.789063 2.425782 2.066407 5.648438.714844 8.34375-1.351563 2.691406-4.101563 4.398438-7.113281 4.410156zm0 0"/><path d="m224.257812 174.070312c-2.523437-.011718-4.898437-1.214843-6.398437-3.25-6.824219-9.226562-10.976563-20.15625-12-31.589843l-.121094-1.390625c-.324219-2.890625.945313-5.730469 3.316407-7.414063 2.371093-1.683593 5.46875-1.949219 8.089843-.695312 2.621094 1.257812 4.355469 3.835937 4.53125 6.738281l.121094 1.371094c.757813 8.496094 3.839844 16.617187 8.910156 23.476562 1.789063 2.425782 2.066407 5.648438.714844 8.34375-1.351563 2.691406-4.101563 4.398438-7.113281 4.410156zm0 0"/><path d="m99.15625 211.636719c-3.105469 0-5.929688-1.796875-7.242188-4.609375-1.316406-2.816406-.886718-6.132813 1.105469-8.515625 7.964844-9.46875 11.808594-21.734375 10.664063-34.058594l-.128906-1.359375c-.398438-4.402344 2.847656-8.296875 7.25-8.695312 4.402343-.398438 8.292968 2.84375 8.695312 7.246093l.121094 1.371094c1.539062 16.554687-3.621094 33.035156-14.320313 45.757813-1.523437 1.820312-3.773437 2.867187-6.144531 2.863281zm0 0"/><path d="m70.546875 206.175781c-3.105469-.003906-5.929687-1.804687-7.242187-4.621093-1.316407-2.8125-.878907-6.132813 1.113281-8.515626 7.957031-9.476562 11.796875-21.738281 10.664062-34.058593l-.125-1.351563c-.402343-4.398437 2.835938-8.292968 7.238281-8.695312 4.402344-.402344 8.292969 2.839844 8.695313 7.242187l.128906 1.367188c1.527344 16.550781-3.628906 33.027343-14.320312 45.757812-1.523438 1.824219-3.777344 2.875-6.152344 2.875zm0 0"/><path d="m48.011719 191.804688c-2.824219 0-5.433594-1.492188-6.875-3.917969-1.441407-2.429688-1.492188-5.433594-.140625-7.914063 4.410156-8.078125 6.324218-17.285156 5.496094-26.453125l-.128907-1.363281c-.402343-4.398438 2.839844-8.292969 7.238281-8.695312 4.402344-.402344 8.296876 2.839843 8.699219 7.242187l.109375 1.335937c1.117188 12.320313-1.453125 24.699219-7.382812 35.558594-1.390625 2.582032-4.082032 4.199219-7.015625 4.207032zm0 0"/><path d="m48.011719 191.804688c-2.824219 0-5.433594-1.492188-6.875-3.917969-1.441407-2.429688-1.492188-5.433594-.140625-7.914063 4.410156-8.078125 6.324218-17.285156 5.496094-26.453125l-.128907-1.363281c-.402343-4.398438 2.839844-8.292969 7.238281-8.695312 4.402344-.402344 8.296876 2.839843 8.699219 7.242187l.109375 1.335937c1.117188 12.320313-1.453125 24.699219-7.382812 35.558594-1.390625 2.582032-4.082032 4.199219-7.015625 4.207032zm0 0"/></g><path d="m8.011719 112.039062 176-48 112 24-88-80-184 48zm0 0" fill="#c17450"/><path d="m48.746094 49.582031-15.117188 55.472657 17.910156-4.886719 15.074219-55.242188zm0 0" fill="#8f563b"/><path d="m83.203125 40.597656-15.007813 55.023438 17.921876-4.886719 14.941406-54.792969zm0 0" fill="#8f563b"/><path d="m117.652344 31.605469-14.890625 54.59375 17.921875-4.890625 14.824218-54.359375zm0 0" fill="#8f563b"/><path d="m156.019531 21.597656-14.753906 54.097656 17.921875-4.890624 14.6875-53.863282zm0 0" fill="#8f563b"/><path d="m188.125 13.230469-14.640625 53.679687 10.527344-2.871094 6.464843 1.382813 15.503907-56.855469zm0 0" fill="#8f563b"/><path d="m218.851562 17.894531-13.816406 50.648438 15.671875 3.359375 11.433594-41.929688zm0 0" fill="#8f563b"/><path d="m244.492188 41.207031-9.226563 33.816407 15.671875 3.359374 6.84375-25.097656zm0 0" fill="#8f563b"/><path d="m116.867188 167.925781c-14.597657-.003906-29.15625-1.480469-43.457032-4.414062l-20.6875-4.242188c-4.234375-.96875-6.917968-5.140625-6.050781-9.398437.871094-4.253906 4.976563-7.039063 9.25-6.273438l20.699219 4.242188c38.339844 7.878906 78.15625 4.308594 114.484375-10.265625l19.617187-7.847657c2.664063-1.113281 5.722656-.703124 8 1.070313 2.28125 1.773437 3.425782 4.640625 2.996094 7.496094-.425781 2.855469-2.359375 5.261719-5.058594 6.289062l-19.609375 7.847657c-25.496093 10.226562-52.710937 15.488281-80.183593 15.496093zm0 0" fill="#a88e74"/><path d="m207.371094 148.300781c1.941406 8.132813 5.496094 15.789063 10.449218 22.519531 2.625 3.554688 7.632813 4.308594 11.1875 1.6875 3.554688-2.625 4.308594-7.636718 1.683594-11.191406-5.070312-6.859375-8.152344-14.980468-8.910156-23.476562l-.121094-1.371094c-.078125-.359375-.183594-.710938-.3125-1.054688-.042968-.414062-.117187-.828124-.222656-1.230468-.066406-.144532-.1875-.242188-.257812-.386719-.226563-.433594-.492188-.847656-.800782-1.230469-.300781-.46875-.65625-.898437-1.054687-1.289062-.328125-.265625-.675781-.503906-1.039063-.710938-.484375-.335937-.996094-.625-1.539062-.855468-.425782-.125-.859375-.21875-1.300782-.28125-.5625-.125-1.132812-.191407-1.707031-.199219-.140625 0-.261719-.054688-.40625-.046875-.390625.082031-.773437.195312-1.144531.335937-.386719.035157-.769531.105469-1.144531.207031l-19.613281 7.847657c-2.675782 1.070312-5.394532 1.960937-8.097657 2.902343-.097656.050782-.207031.066407-.304687.113282-34.054688 11.972656-70.71875 14.476562-106.085938 7.25l-20.699218-4.242188c-.40625-.03125-.816407-.03125-1.222657 0-.363281-.070312-.734375-.113281-1.105469-.128906-.140624 0-.253906.105469-.398437.121094-.550781.105468-1.085937.265625-1.601563.488281-.449218.140625-.882812.320313-1.300781.535156-.429687.289063-.832031.621094-1.203125.984375-.386718.3125-.742187.660156-1.0625 1.039063-.546875.886719-1.003906 1.828125-1.351562 2.808593 0 .144532-.136719.25-.160156.394532-.03125.382812-.03125.765625 0 1.148437-.074219.390625-.117188.78125-.128907 1.179688l.128907 1.359375c.828124 9.167968-1.082032 18.375-5.496094 26.453125-1.410156 2.515625-1.359375 5.59375.132812 8.058593 1.492188 2.464844 4.191406 3.9375 7.074219 3.855469 2.878906-.082031 5.492187-1.710937 6.839844-4.257812 4.433593-8.113281 7.003906-17.113281 7.527343-26.34375l10.851563 2.226562c.613281.117188 1.230469.207031 1.847656.328125-.132812 10.691406-3.964843 21.011719-10.839843 29.199219-2.835938 3.390625-2.382813 8.4375 1.007812 11.269531 3.390625 2.835938 8.4375 2.386719 11.269531-1.007812 8.714844-10.421875 13.769531-23.410156 14.402344-36.980469 4.222656.503906 8.453125.910156 12.6875 1.167969.320313 11.3125-3.519531 22.351562-10.792969 31.023437-2.835937 3.390625-2.382812 8.4375 1.007813 11.269531 3.390625 2.835938 8.4375 2.382813 11.273437-1.007812 9.605469-11.449219 14.761719-25.976562 14.519532-40.917969 2.75 0 5.496093-.097656 8.238281-.242187l3.6875 41.136718c.371093 4.136719 3.847656 7.304688 8 7.289063h.722656c4.398437-.394531 7.648437-4.28125 7.253906-8.679687l-3.726562-41.21875c2.726562-.34375 5.449219-.75 8.160156-1.207032 2.429687 14.753906 10.097656 28.140625 21.597656 37.695313 3.40625 2.636719 8.285157 2.101562 11.039063-1.203125 2.757812-3.304688 2.40625-8.199219-.796875-11.074219-8.65625-7.257813-14.351563-17.441406-16-28.617187 4.0625-.992188 8.105469-2.144532 12.121093-3.382813 3.039063 13.238281 10.328126 25.113281 20.757813 33.816406 3.390625 2.835938 8.441406 2.386719 11.277344-1.003906 2.835937-3.394531 2.386719-8.441406-1.003907-11.277344-8.179687-6.878906-13.769531-16.335937-15.847656-26.816406.574219-.222656 1.167969-.414063 1.742188-.648437zm0 0"/><path d="m303.132812 91.695312c1.664063-3.222656.949219-7.164062-1.738281-9.601562l-88-80c-2-1.820312-4.78125-2.503906-7.398437-1.824219l-184 48c-2.742188.714844-4.902344 2.820313-5.679688 5.542969l-16 56c-.699218 2.417969-.222656 5.027344 1.292969 7.035156 1.511719 2.011719 3.886719 3.195313 6.402344 3.191406.710937-.003906 1.417969-.097656 2.105469-.28125l174.117187-47.488281 110.097656 23.59375c3.535157.738281 7.132813-.964843 8.800781-4.167969zm-267.082031 4.40625-16.449219 4.480469 10.851563-37.953125 15.871094-4.144531zm34.550781-9.421874-16.621093 4.535156 10.207031-37.382813 16.542969-4.320312zm34.5625-9.433594-16.640624 4.542968 10.0625-36.949218 16.625-4.320313zm38.566407-10.511719-20.640625 5.601563 9.992187-36.503907 20.53125-5.355469zm32.152343-8.800781-14.230468 3.878906 9.816406-36 14.214844-3.703125zm31.28125 2.847656-14.609374-3.128906 11-40.214844 2.289062-.597656 10.679688 9.710937zm30.222657 6.480469-14.550781-3.121094 6.976562-25.511719 12.3125 11.203125zm15.664062 3.359375 2.402344-8.703125 13.253906 12.046875zm0 0"/></svg>