<svg height="512" viewBox="0 0 512 512" width="512" xmlns="http://www.w3.org/2000/svg"><g id="Filled_outline" data-name="Filled outline"><circle cx="184" cy="64" fill="#ffa912" r="40"/><path d="m426.644 245.979c-11.567-18.6-32.4-29.979-54.88-29.979h-230.623c-22.967 0-44.173 11.873-55.568 31.112l-31.859 53.788 2.286 35.1h400v-42.815z" fill="#feb784"/><path d="m86.5 367.99h113.5l48-16.338 184 16.348h16.828c21.634 0 39.172-17.908 39.172-40 0-22.744-18.548-40.912-40.8-39.965l-360.7 30.941z" fill="#fec9a3"/><path d="m323.922 161.053-6.339 2.98-23.843-50.712 6.339-2.981a21.014 21.014 0 0 1 27.958 10.076l5.963 12.678a21.015 21.015 0 0 1 -10.078 27.959z" fill="#feb784"/><path d="m171.786 232.583 6.339-2.981-23.844-50.712-6.339 2.98a21.015 21.015 0 0 0 -10.076 27.959l5.961 12.678a21.015 21.015 0 0 0 27.959 10.076z" fill="#fec093"/><path d="m322.083 230a138.287 138.287 0 0 0 -8.638-78.649l-19.416-45.981a80.761 80.761 0 0 0 -108.764-41.67 80.761 80.761 0 0 0 -37.291 110.343l23.026 44.284a138.285 138.285 0 0 0 55.058 56.824 76.365 76.365 0 0 0 35.511 9.736 56.036 56.036 0 0 0 45.358-21.326 76.378 76.378 0 0 0 15.156-33.561z" fill="#ffd5b8"/><path d="m322.08 230a76.261 76.261 0 0 1 -15.15 33.56 56.059 56.059 0 0 1 -44.02 21.35c-.45 0-.89-.01-1.34-.02a76.446 76.446 0 0 1 -35.51-9.74 138.243 138.243 0 0 1 -55.06-56.82l-22.71-43.67v-.01l-.32-.61a80.763 80.763 0 1 1 146.06-68.67l.36.85 19.06 45.13a138.29 138.29 0 0 1 8.63 78.65z" fill="#fec9a3"/><path d="m294.39 106.22c-9.52-11.12-18.94-18.87-28.62-23.66a57.782 57.782 0 0 0 -15.19-5.11 60.22 60.22 0 0 0 -15.4-.77 82.017 82.017 0 0 0 -17.4 3.36 127.88 127.88 0 0 0 -13.68 5.04c-2.11.9-4.26 1.88-6.43 2.92q-4.155 2-7.96 4.1a116.649 116.649 0 0 0 -14.91 9.71 84.493 84.493 0 0 0 -12 11.2 66.808 66.808 0 0 0 -7.44 10.26 61.815 61.815 0 0 0 -6.32 14.75c-3.11 10.98-3.35 23.15-.75 36.63l-.32-.61a80.362 80.362 0 0 1 -9.13-37.18c0-.78.01-1.56.04-2.33a81.11 81.11 0 0 1 7.92-32.67 81.1 81.1 0 0 1 8.32-13.71 80.214 80.214 0 0 1 22.66-20.44 82.324 82.324 0 0 1 7.49-4.01q3.45-1.62 6.96-2.88a80.483 80.483 0 0 1 47.41-2.29 81.6 81.6 0 0 1 15.83 5.88 80.56 80.56 0 0 1 38.56 40.96z" fill="#ffb531"/><path d="m61.189 367.99h26.811l152-55.99 112-16-32-24h-88l-136.327 13.631a213.437 213.437 0 0 0 -46.244 9.89 37.189 37.189 0 0 0 -25.429 35.279 37.189 37.189 0 0 0 37.189 37.19z" fill="#fec9a3"/><rect fill="#ebebe9" height="80" rx="24" width="464" x="24" y="368"/><path d="m111.755 446.284-7.383.519 2.513 25.888c.884 9.1 9.312 15.932 18.826 15.264s16.51-8.586 15.627-17.685c-1.388-14.297-14.633-25.036-29.583-23.986z" fill="#feb2b2"/><path d="m107.306 453.284-2.933-6.488-24.968 9.709c-8.776 3.413-12.825 12.957-9.045 21.318s13.958 12.373 22.733 8.96c13.79-5.362 20.153-20.36 14.213-33.499z" fill="#ec8c8c"/><path d="m86.112 426.81a17.719 17.719 0 0 0 -23.958-1.677l-.256.209a15.377 15.377 0 0 0 -1.779 22.577l.85.929c9.623 10.526 26.479 11.706 37.646 2.636l5.772-4.687z" fill="#f59898"/><path d="m112.207 402.457c-8.217-4.759-18.831-2.395-23.708 5.281-7.665 12.06-3.412 27.9 9.5 35.377l6.375 3.693 13.878-21.838c4.877-7.67 2.17-17.755-6.045-22.513z" fill="#ec8c8c"/><path d="m138.5 421.16c-14.648-3.384-29.2 5.044-32.5 18.825l-1.629 6.806h.023l7.36-.512a28.475 28.475 0 0 1 20.546 6.823c8.826 1.333 17.278-3.841 19.272-12.167 2.101-8.766-3.753-17.621-13.072-19.775z" fill="#f59898"/><path d="m464 368h-98.2c-65.576 41.957-149.856 66.328-215.157 80h313.357a24 24 0 0 0 24-24v-32a24 24 0 0 0 -24-24z" fill="#e0e0de"/><path d="m496 328a47.573 47.573 0 0 0 -38.041-46.866l-24.529-39.361c-12.961-20.835-36.594-33.773-61.672-33.773h-39.649a143.548 143.548 0 0 0 -4.7-39.776 29.014 29.014 0 0 0 13.825-38.524l-5.984-12.687a28.943 28.943 0 0 0 -34.229-15.44 88.164 88.164 0 0 0 -34.177-39.935 86.078 86.078 0 0 0 -33.719-12.563c-1.173-.2-2.54-.225-3.782-.363a47.878 47.878 0 1 0 -85.191 41.729 87.761 87.761 0 0 0 -12.472 34.7 84.356 84.356 0 0 0 -.8 11.735 87.244 87.244 0 0 0 9.675 40.106 29.073 29.073 0 0 0 -11.4 32.079c-21.02 3.439-39.728 15.759-50.427 33.963l-25.589 43.023c-2.081.627-4.179 1.2-6.241 1.891a45.112 45.112 0 0 0 -15.442 76.808 31.9 31.9 0 0 0 -15.456 27.254v32a32.061 32.061 0 0 0 10.672 23.875l10.656-11.937a16.027 16.027 0 0 1 -5.328-11.938v-32a16.021 16.021 0 0 1 16-16h416a16.021 16.021 0 0 1 16 16v32a16.021 16.021 0 0 1 -16 16h-288v16h288a32.032 32.032 0 0 0 32-32v-32a31.892 31.892 0 0 0 -16.359-27.746 48.2 48.2 0 0 0 16.359-36.254zm-76.148-77.766 19.075 30.615-84.081 7.289-30.046-22.538a7.973 7.973 0 0 0 -4.8-1.6h-3.625a85.146 85.146 0 0 0 13.563-32.509c.459-2.414.844-4.926 1.164-7.492h40.656c19.594.001 38.023 10.048 48.094 26.235zm-99.086-126.422 6 12.727a12.961 12.961 0 0 1 -4.351 16.118c-.564-1.454-1-3-1.61-4.407l-13.416-31.75a12.929 12.929 0 0 1 13.377 7.312zm-34.125-15.32 19.453 46.047a107.919 107.919 0 0 1 4.273 11.7 128.353 128.353 0 0 1 5.492 49.2 111.018 111.018 0 0 1 -1.648 13.117 69.509 69.509 0 0 1 -13.511 30.061 47.63 47.63 0 0 1 -5.082 5.394l-71.095.7a128.453 128.453 0 0 1 -40.123-39.422 114.623 114.623 0 0 1 -6.25-10.633l-23.062-44.289a71.413 71.413 0 0 1 -8.176-33.017l5.793 2.088 5.422-15.047-9.381-3.382a71.9 71.9 0 0 1 4.822-14.35l18 12 8.876-13.312-18.719-12.478a72 72 0 0 1 19.913-18.077l11.284 24 14.484-6.813-11.289-24.011a70.907 70.907 0 0 1 25.6-3.8l-5.474 21.894 15.516 3.876 5.911-23.647a70.421 70.421 0 0 1 15.065 5.743l-3.414 9.482 15.047 5.422 2.073-5.757a72.249 72.249 0 0 1 20.2 27.311zm-138.635 82.908 15.963 30.659c.77 1.457 1.5 2.782 2.205 4.046a12.863 12.863 0 0 1 -15.088-7.038l-5.992-12.6a13.139 13.139 0 0 1 2.912-15.067zm35.994-159.4a31.968 31.968 0 0 1 27.871 16.437 87.987 87.987 0 0 0 -57.271 27.943 31.78 31.78 0 0 1 29.4-44.38zm-91.5 219.172c8.985-15.3 25.314-25.214 43.371-26.836l.731 1.539a28.861 28.861 0 0 0 38.546 13.937l.051-.023a144.92 144.92 0 0 0 25.452 27.305l-105.776 10.578c-6.679.666-13.321 1.718-19.922 2.994zm-40.539 51.937a205.811 205.811 0 0 1 44.508-9.515l135.531-13.594h85.336l14.414 10.812-92.883 13.258a7.968 7.968 0 0 0 -1.633.414l-150.664 55.508h-25.382a29.19 29.19 0 0 1 -9.227-56.883zm396.839 56.891h-16.449l-183.651-16.289a7.568 7.568 0 0 0 -3.281.4l-46.739 15.889h-65.847l109.136-40.211 103.596-14.789 101.635-9h1.516a27.425 27.425 0 0 1 3.367.195c15.917 1.75 27.917 15.422 27.917 31.805 0 17.648-14 32-31.2 32z"/><path d="m181.305 195.219 10.031 12.469a70.119 70.119 0 0 1 29.75-13.993l-3.2-15.672a86.2 86.2 0 0 0 -36.581 17.196z"/><path d="m260.547 220.633a45.478 45.478 0 0 1 -18.156 4.32l-1.313.031.375 16 1.305-.031a61.667 61.667 0 0 0 37.9-14.32l-10.265-12.266a45.384 45.384 0 0 1 -9.846 6.266z"/><path d="m215.031 172.414 4.531-15.344c-22.609-6.664-45.343 4.063-54.054 25.532l14.828 6.015c5.641-13.906 19.891-20.555 34.695-16.203z"/><path d="m235.3 149.672 14.7 6.3c6.07-14.164 20.281-20.883 34.617-16.383l4.813-15.25c-22.086-6.995-44.852 3.669-54.13 25.333z"/><path d="m235.38 162.796h16.006v49.026h-16.006z" transform="matrix(.905 -.425 .425 .905 -56.566 121.353)"/><path d="m262.945 175.094a70.192 70.192 0 0 1 29.755-13.994l-3.219-15.672a86.214 86.214 0 0 0 -36.57 17.195z"/><path d="m156.389 424.776a25.482 25.482 0 0 0 -16.09-11.412 36.6 36.6 0 0 0 -11.982-.753c-.09-.516-.192-1.031-.318-1.546a24.649 24.649 0 0 0 -11.784-15.532c-11.861-6.869-27.328-3.321-34.469 7.913a32.439 32.439 0 0 0 -4.246 10.124 25.626 25.626 0 0 0 -20.392 5.357l-.252.2a23.521 23.521 0 0 0 -8.792 16.63 23.257 23.257 0 0 0 6.151 17.553l.85.932a33.974 33.974 0 0 0 8.347 6.63 23.5 23.5 0 0 0 -.341 20.241 26.094 26.094 0 0 0 32.922 13.121 34.82 34.82 0 0 0 9.962-5.915 26.089 26.089 0 0 0 18.483 7.681q.912 0 1.834-.064a24.971 24.971 0 0 0 17.494-8.767 23.625 23.625 0 0 0 5.534-17.669 33.12 33.12 0 0 0 -2.928-10.731 23.855 23.855 0 0 0 12.982-15.969 23.6 23.6 0 0 0 -2.965-18.024zm-19.689 4.179a9.587 9.587 0 0 1 6.087 4.243 7.7 7.7 0 0 1 1.009 5.877c-.866 3.62-4.411 6.127-8.472 6.233a36.351 36.351 0 0 0 -20.2-7.063c3.699-7.299 12.603-11.366 21.576-9.29zm-41.45-16.927c2.556-4.02 8.485-5.232 12.946-2.649a8.792 8.792 0 0 1 4.261 5.487 7.476 7.476 0 0 1 .061 3.279 33.133 33.133 0 0 0 -13.14 16.211 17.934 17.934 0 0 1 -6.214-9.656 16.233 16.233 0 0 1 2.086-12.672zm-31.23 24.916a7.678 7.678 0 0 1 2.925-5.4l.253-.2a9.755 9.755 0 0 1 11.017-.747 33.912 33.912 0 0 0 11.941 16.877 19.751 19.751 0 0 1 -23.282-4.022l-.851-.931a7.41 7.41 0 0 1 -2.003-5.577zm26.173 42.383c-4.784 1.859-10.526-.339-12.543-4.8a7.573 7.573 0 0 1 2.069-9.03c.505.021 1.009.037 1.514.037a35.7 35.7 0 0 0 19.82-5.924 16.19 16.19 0 0 1 -.733 10.007 17.6 17.6 0 0 1 -10.127 9.71zm41.355-2.488a9.1 9.1 0 0 1 -6.4 3.136 9.878 9.878 0 0 1 -9.586-5.446 32.03 32.03 0 0 0 .65-20.166c8.962 1.074 16.312 7.924 17.161 16.681a7.752 7.752 0 0 1 -1.825 5.795z"/></g></svg>